<?xml version="1.0" encoding="UTF-8" standalone="no"?>
<!-- Created with Inkscape (http://www.inkscape.org/) -->

<svg
   version="1.1"
   id="svg1"
   width="927"
   height="297"
   viewBox="0 0 927 297"
   sodipodi:docname="logo.svg"
   inkscape:version="1.4.2 (f4327f4, 2025-05-13)"
   xmlns:inkscape="http://www.inkscape.org/namespaces/inkscape"
   xmlns:sodipodi="http://sodipodi.sourceforge.net/DTD/sodipodi-0.dtd"
   xmlns="http://www.w3.org/2000/svg"
   xmlns:svg="http://www.w3.org/2000/svg">
  <defs
     id="defs1" />
  <sodipodi:namedview
     id="namedview1"
     pagecolor="#ffffff"
     bordercolor="#000000"
     borderopacity="0.25"
     inkscape:showpageshadow="2"
     inkscape:pageopacity="0.0"
     inkscape:pagecheckerboard="0"
     inkscape:deskcolor="#d1d1d1"
     showgrid="false"
     inkscape:zoom="0.75566343"
     inkscape:cx="355.31692"
     inkscape:cy="205.77944"
     inkscape:window-width="1920"
     inkscape:window-height="1009"
     inkscape:window-x="-8"
     inkscape:window-y="-8"
     inkscape:window-maximized="1"
     inkscape:current-layer="g1" />
  <g
     inkscape:groupmode="layer"
     inkscape:label="Image"
     id="g1">
    <path
       style="fill:#e9b614"
       d="m 773.41074,124.35819 c -0.95934,-0.53687 -1.91082,-2.86552 -2.30728,-5.64683 -0.78211,-5.48685 -4.2288,-12.91256 -8.49168,-18.29488 -1.64073,-2.071591 -4.21344,-6.392671 -5.71714,-9.602417 -2.43455,-5.19669 -2.734,-6.98595 -2.734,-16.33589 0,-9.25516 0.31242,-11.16629 2.63517,-16.12002 3.80002,-8.1043 8.73444,-13.0322 17.50915,-17.48601 7.33531,-3.72321 8.0933,-3.89397 17.28474,-3.89397 8.83909,0 10.14841,0.26358 16.26366,3.27411 7.66076,3.77138 15.93485,12.1025 19.06946,19.20088 2.80456,6.35099 3.42859,18.13701 1.34059,25.31948 -0.8993,3.09348 -3.64157,8.455243 -6.09393,11.915026 -6.48605,9.150461 -8.53955,13.322331 -9.93275,20.179251 -0.94861,4.66876 -1.7872,6.38599 -3.55276,7.27519 -2.78242,1.40133 -32.82643,1.58538 -35.27323,0.21608 z"
       id="path47" />
    <path
       style="fill:#e9b614"
       d="m 966.90742,226.61993 c 0.0111,-2.2 0.21589,-2.98225 0.45508,-1.73834 0.23919,1.24391 0.23011,3.04391 -0.0202,4 -0.25029,0.95609 -0.446,-0.0617 -0.4349,-2.26166 z"
       id="path20" />
    <path
       style="fill:#1b1c16"
       d="m 582.43912,292.89241 c -4.70482,-1.34988 -7.35969,-3.36577 -21.8404,-16.58376 -10.54432,-9.62486 -12.85047,-11.29474 -14.89106,-10.78258 -1.32798,0.3333 -7.78271,0.60983 -14.34383,0.61451 -37.39752,0.0267 -71.95107,-21.52408 -84.91432,-52.96031 -5.76661,-13.98417 -7.99979,-30.31886 -6.10658,-44.6669 5.79178,-43.89417 40.58245,-75.295215 86.53846,-78.107055 26.9268,-1.64753 51.48057,7.109544 70.38538,25.102865 12.63729,12.02797 21.19777,27.68826 24.6142,45.02846 2.27431,11.54333 1.68477,31.60541 -1.23504,42.02886 -5.04762,18.01954 -14.55068,32.35219 -29.74036,44.85486 l -2.99703,2.46685 2.99703,3.51982 c 1.64836,1.93589 10.53452,11.52155 19.74702,21.30145 9.2125,9.7799 16.75,18.13609 16.75,18.56933 0,1.14262 -40.85805,0.7915 -44.96347,-0.3864 z M 547.90259,229.0875 c 22.4275,-7.71023 35.74635,-31.39649 32.47181,-57.74785 -3.40065,-27.36618 -22.74592,-46.18723 -47.54031,-46.25205 -19.36346,-0.0506 -35.43934,9.91853 -43.80946,27.16759 -3.6942,7.61296 -6.63452,19.64158 -6.60468,27.01915 0.027,6.66565 2.64694,17.47764 5.94092,24.51671 5.93632,12.68562 20.64408,24.45852 34.04172,27.24885 6.50691,1.3552 18.56415,0.43204 25.5,-1.9524 z m -173,33.28918 c -9.13234,-1.18766 -17.85859,-3.84524 -24.29334,-7.39852 -3.96366,-2.18875 -7.20666,-4.48211 -7.20666,-5.09636 0,-1.84147 9.09699,-19.96067 9.82593,-19.57107 6.04591,3.23137 14.79265,6.7502 18.98218,7.63657 10.34353,2.18834 20.19189,-0.72112 20.19189,-5.96521 0,-3.71058 -4.36386,-6.53887 -16.05783,-10.40733 -6.2932,-2.08183 -13.24217,-4.67057 -15.44217,-5.75273 -17.53268,-8.62422 -20.94937,-32.96939 -6.67383,-47.55345 12.49588,-12.76595 34.54563,-14.85472 55.67519,-5.27412 3.584,1.62506 6.74453,3.54926 7.02341,4.27599 0.27887,0.72674 -1.29267,5.36565 -3.49231,10.30869 -4.52675,10.17255 -3.91753,9.91792 -14.53246,6.07392 -9.78511,-3.5435 -19.57787,-3.5996 -23.04545,-0.13201 -2.81953,2.81952 -3.0296,4.27944 -1.02716,7.13833 1.74629,2.49317 6.0684,4.37456 19.07261,8.30217 16.18047,4.88694 23.22823,10.64615 26.06375,21.29848 1.8068,6.7877 1.78971,12.07007 -0.0588,18.16284 -3.95148,13.0246 -13.15087,20.32114 -29.23614,23.18883 -7.76252,1.3839 -10.12761,1.49863 -15.76885,0.76498 z m -113.1037,-1.67635 c -5.39023,-1.75541 -12.68744,-6.83791 -15.93994,-11.10216 -1.43198,-1.87743 -3.56662,-5.80259 -4.74364,-8.72259 -2.03078,-5.03806 -2.15885,-7.26168 -2.50863,-43.55908 l -0.3686,-38.24999 h 15.54534 15.54534 l 0.28691,34.74999 c 0.27191,32.93174 0.39157,34.89216 2.28692,37.46692 3.11491,4.23149 7.88253,6.08195 14.29893,5.54985 4.88397,-0.40502 5.95347,-0.91951 9.24364,-4.44675 5.41829,-5.80869 5.95743,-9.77882 5.95743,-43.86924 v -29.45077 h 15 15 v 50.49999 50.5 h -12.89301 c -14.05959,0 -14.10699,-0.0204 -14.10699,-6.08179 0,-1.60501 -0.26597,-2.91821 -0.59104,-2.91821 -0.32507,0 -2.39741,1.54619 -4.60521,3.43599 -6.90297,5.90869 -10.13173,6.9599 -22.30375,7.26161 -7.17209,0.17777 -12.42805,-0.19241 -15.1037,-1.06377 z m 406.34962,0.33358 c -9.86917,-2.46553 -19.64097,-9.98771 -23.60074,-18.1675 -4.40948,-9.10878 -5.10927,-16.07556 -5.12782,-51.04991 l -0.0174,-32.74999 h 16.4388 16.43881 l 0.31119,33.24999 c 0.3078,32.88714 0.33681,33.29119 2.65774,37.02425 2.99044,4.80989 7.27756,7.01147 13.65346,7.01147 8.85632,0 14.24163,-4.30922 17.0021,-13.60475 1.18178,-3.97948 1.4979,-11.23144 1.4979,-34.36247 v -29.31849 h 17 17 v 50.49999 50.5 h -15 -15 v -4.33333 c 0,-2.38334 -0.28278,-4.61612 -0.6284,-4.96174 -0.34562,-0.34562 -2.51897,0.92078 -4.82966,2.81422 -7.3238,6.0013 -12.78019,7.84701 -24.04194,8.13255 -5.5,0.13945 -11.68933,-0.16848 -13.75408,-0.68429 z M 90.058585,250.3165 c -0.35511,-5.3625 -0.64798,-14.52223 -0.65083,-20.35496 l -0.005,-10.60497 -8.93782,-4.15269 -8.93783,-4.15269 2.47065,-7.24234 c 2.78817,-8.17312 4.70724,-23.3082 3.29099,-25.95502 -0.74456,-1.39151 -2.64813,-1.76655 -10.1512,-1.99999 -8.47235,-0.26361 -9.23479,-0.45245 -9.23479,-2.28733 0,-1.88221 0.83333,-2.02945 14.1494,-2.5 12.19281,-0.43086 14.44659,-0.76949 16.29851,-2.44889 1.57953,-1.43237 2.07,-2.88394 1.8506,-5.477 -0.44953,-5.31303 -2.81716,-6.03948 -19.79851,-6.07468 -7.975,-0.0165 -15.10678,-0.41459 -15.84839,-0.88457 -0.74161,-0.46998 -1.18619,-1.70059 -0.98795,-2.73469 0.33409,-1.74271 1.78516,-1.91672 19.84839,-2.38017 20.21479,-0.51865 23.26164,-1.13624 24.47563,-4.96116 0.75387,-2.37526 -0.84029,-5.622 -3.44485,-7.01592 -1.05124,-0.56261 -7.96083,-1.02292 -15.35464,-1.02292 -10.67849,0 -13.69716,-0.30588 -14.67762,-1.48726 -2.78403,-3.35456 -0.59007,-4.27688 11.16573,-4.69396 12.42627,-0.44088 17.02928,-1.9811 19.02757,-6.36688 2.30036,-5.04874 -3.41163,-10.4519 -11.04931,-10.4519 -3.93421,0 -5.77538,-2.23632 -3.61765,-4.39405 1.38106,-1.38107 4.81175,-1.60595 24.499335,-1.60595 20.79369,0 22.97594,-0.1605 23.79345,-1.75 0.99815,-1.94073 0.45602,-4.3589 -1.22963,-5.48469 -0.60503,-0.40407 -6.54541,-0.74157 -13.20084,-0.75 -13.943613,-0.0176 -18.663885,-1.153931 -18.203475,-4.382051 0.30387,-2.13057 0.35325,-2.13359 39.061885,-2.39501 43.51477,-0.29388 47.54241,0.12112 60.18324,6.201121 9.00103,4.32932 16.38464,11.94866 19.68549,20.31397 1.82954,4.63658 2.27766,7.77494 2.31981,16.24666 0.0464,9.32934 -0.2429,11.1297 -2.59493,16.14796 -3.13019,6.67855 -8.8027,12.64162 -15.85964,16.672 l -5.10273,2.91429 8.57755,4.2491 c 12.99324,6.43655 19.85549,15.48736 22.47141,29.63818 0.5842,3.16018 1.06217,7.64073 1.06217,9.95679 0,5.23632 -3.42502,16.55059 -6.47061,21.37512 -3.92461,6.21698 -12.86915,13.56956 -19.96173,16.40891 -12.48691,4.99885 -19.97062,5.63764 -66.04783,5.63764 H 90.704435 Z m 76.816495,-21.31859 c 7.1437,-1.24402 12.97406,-4.26458 15.93349,-8.25474 1.67954,-2.2645 2.09402,-4.2788 2.09402,-10.17667 0,-8.19482 -1.44484,-11.13584 -7.49299,-15.25213 -5.88714,-4.00671 -10.45112,-4.71459 -30.50701,-4.73168 l -19,-0.0162 -0.2734,18.46783 c -0.15037,10.1573 -0.052,19.0448 0.21861,19.75 0.62704,1.63402 29.94904,1.79448 39.02728,0.21358 z m 2.77198,-71.28102 c 8.48779,-3.79136 12.03027,-16.61566 6.88809,-24.93589 -1.28376,-2.07716 -4.20126,-4.77107 -6.48333,-5.98645 -3.85947,-2.05547 -5.47607,-2.21043 -23.14923,-2.21891 l -19,-0.009 -0.18044,16.95805 c -0.0992,9.32692 0.0692,17.36189 0.37421,17.85548 0.31151,0.50403 8.71951,0.7028 19.18044,0.45344 14.52413,-0.34623 19.45037,-0.81233 22.37026,-2.11659 z m 603.75553,51.84961 v -50.49999 h 18.5 18.5 l 0.0666,31.74999 c 0.0366,17.4625 0.0799,34.225 0.0962,37.25 0.0163,3.025 -0.0137,11.4625 -0.0666,18.75 l -0.0962,13.25 h -18.5 -18.5 z m 54.69038,47.75 c -1.01313,-5.13316 -0.0699,-17.02372 1.5414,-19.43134 0.85347,-1.27526 5.08797,-6.39774 9.40999,-11.38328 4.32203,-4.98554 11.45823,-13.49174 15.85823,-18.90267 4.4,-5.41093 10.64789,-13.03186 13.8842,-16.93538 l 5.8842,-7.09733 -20.6342,-0.27029 -20.6342,-0.27029 v -11.99079 -11.99081 l 41.25,0.2611 41.25,0.26109 0.2859,9.72407 0.2859,9.72406 -22.5359,28.00725 c -12.39475,15.40398 -22.5359,28.24065 -22.5359,28.52593 0,0.28527 10.8,0.51868 24,0.51868 h 24 v 12 12 H 874.01917 828.63574 Z M 79.152585,236.37718 c -2.03245,-0.53114 -2.37218,-2.31068 -0.44113,-2.31068 0.71988,0 2.18238,0.66069 3.25,1.4682 2.0136,1.52301 0.98072,1.8328 -2.80887,0.84248 z m -18.25,-6.842 c -6.05,-2.43948 -11.1125,-4.4429 -11.25,-4.45205 -0.1375,-0.009 -0.25,-0.91663 -0.25,-2.01663 0,-2.68729 1.17102,-2.53866 8.90316,1.12999 3.62826,1.7215 8.50934,3.95551 10.84684,4.96446 2.35837,1.01797 4.25,2.51793 4.25,3.37001 0,2.05655 0.0739,2.07427 -12.5,-2.99578 z m -27,2.58596 c -3.26278,-1.33543 -5.62197,-4.63957 -5.71774,-8.00793 -0.0688,-2.41989 -0.76268,-3.50235 -2.98019,-4.64906 -8.20476,-4.24285 -9.09113,-16.10859 -1.75159,-23.44813 4.94863,-4.94863 10.30133,-5.97398 16.13051,-3.08993 2.95949,1.46423 4.63525,1.77394 5.90924,1.09212 6.66086,-3.56478 16.74632,2.24404 15.74888,9.07072 -0.52173,3.57078 -2.29226,3.37876 -3.65747,-0.39666 -2.23251,-6.17389 -9.29032,-7.02825 -12.25761,-1.48382 -1.09263,2.04159 -1.21323,2.00198 -4.63696,-1.52292 -5.35191,-5.51005 -12.2663,-4.42746 -15.83818,2.47981 -3.11934,6.03212 -0.26738,12.28178 6.15441,13.48652 2.74753,0.51544 3.36604,1.01565 2.82807,2.28718 -1.58366,3.74309 -1.47939,5.84646 0.40509,8.17136 1.68109,2.07398 2.78215,2.4326 7.07718,2.30504 3.46292,-0.10284 5.08636,0.24489 5.08636,1.08949 0,2.78417 -7.99916,4.45837 -12.5,2.61621 z m 46,-4.05464 c -0.33992,-0.55 0.0835,-1 0.94098,-1 0.85746,0 1.55902,0.45 1.55902,1 0,0.55 -0.42344,1 -0.94099,1 -0.51754,0 -1.21909,-0.45 -1.55901,-1 z m -13.1408,-7.01821 c -10.40287,-5.62866 -12.08271,-7.13644 -9.93587,-8.91816 1.17637,-0.9763 3.13454,-0.0677 10.43863,4.84355 4.94484,3.32491 9.25613,6.47489 9.58064,6.99996 1.55717,2.51955 -1.84365,1.53292 -10.0834,-2.92535 z m -32.00493,-46.50094 c -1.02501,-2.67115 1.03747,-3.60569 7.24998,-3.28509 5.12767,0.26461 5.89575,0.56481 5.89575,2.30425 0,1.75538 -0.76602,2.03646 -6.26294,2.29805 -5.02693,0.23924 -6.38528,-0.0207 -6.88279,-1.31721 z M 784.27116,149.61283 c -1.44728,-0.81727 -2.89566,-2.17452 -3.21861,-3.01613 -0.32296,-0.8416 -1.44621,-1.53019 -2.49613,-1.53019 -3.02081,0 -4.79637,-2.74148 -3.31345,-5.11601 0.77762,-1.24517 0.89388,-2.53643 0.32059,-3.56083 -0.49469,-0.88397 -0.67802,-2.45394 -0.4074,-3.48881 0.46055,-1.76114 1.55646,-1.86408 17.11924,-1.60797 l 16.62719,0.27362 0.33749,2.38691 c 0.18562,1.3128 -0.19834,2.71807 -0.85324,3.12283 -0.8476,0.52384 -0.89725,1.28431 -0.17229,2.63891 1.21516,2.27054 -0.17207,5.35135 -2.40962,5.35135 -0.82405,0 -2.54106,1.21231 -3.81558,2.69403 -1.98953,2.31297 -3.22039,2.73959 -8.70203,3.01613 -4.32029,0.21795 -7.23558,-0.15836 -9.01616,-1.16384 z M 11.506865,137.17673 c -0.76764,-0.4996 -1.11927,-1.62879 -0.78138,-2.50929 0.47743,-1.24417 2.08531,-1.60093 7.21527,-1.60093 6.27343,0 6.58508,0.11163 6.28138,2.25 -0.28172,1.98364 -0.97066,2.2807 -5.81955,2.5093 -3.025,0.14261 -6.12807,-0.14947 -6.89572,-0.64908 z m 23.14572,0.2455 c -0.6875,-0.28731 -1.25,-1.38489 -1.25,-2.43905 0,-1.768 0.81985,-1.91667 10.56955,-1.91667 10.38903,0 10.5641,0.0384 10.25,2.25 -0.30199,2.12639 -0.814,2.26039 -9.31955,2.43905 -4.95,0.10398 -9.5625,-0.046 -10.25,-0.33333 z M 740.97402,125.49508 c -3.07579,-3.07579 -1.87436,-5.90055 5.44731,-12.80744 3.86031,-3.64162 7.61557,-6.62113 8.34502,-6.62113 1.81787,0 4.63624,3.27722 4.63624,5.39106 0,2.22438 -13.04817,15.60894 -15.21665,15.60894 -0.90227,0 -2.34764,-0.70714 -3.21192,-1.57143 z m 90.82199,-5.59757 c -4.06638,-3.94295 -7.39342,-7.76795 -7.39342,-8.5 0,-1.60559 3.56205,-5.331 5.09723,-5.331 0.60348,0 4.20348,2.99883 8,6.66406 5.73594,5.53759 6.90277,7.20988 6.90277,9.89301 0,3.02917 -1.33275,4.44293 -4.18837,4.44293 -0.56363,0 -4.35183,-3.22605 -8.41821,-7.169 z m -785.212975,3.919 c 0.31555,-2.22183 0.53576,-2.25343 17.59099,-2.5237 17.58242,-0.27864 21.70083,0.3794 20.58433,3.28896 -0.47613,1.24076 -3.68578,1.48474 -19.53231,1.48474 h -18.96256 z m 738.887715,-10.2575 c 0.13929,-10.88457 -0.0566,-12.10303 -3.61844,-22.508685 -3.72932,-10.8949 -3.95121,-13.47484 -0.94427,-10.9793 1.19916,0.99521 2.12392,1.02975 4.05186,0.15132 1.89792,-0.86475 2.9668,-0.84547 4.44912,0.0802 1.46967,0.91782 2.67619,0.94473 4.89017,0.10905 2.13121,-0.80445 3.24043,-0.8081 4.03523,-0.0133 0.7948,0.7948 1.91691,0.78627 4.08214,-0.031 1.64231,-0.61991 2.98603,-0.75352 2.98603,-0.29692 0,0.4566 -1.64158,5.70501 -3.64796,11.66314 -3.28494,9.754945 -3.62962,11.778325 -3.46372,20.332955 0.10134,5.225 0.42324,10.2875 0.71535,11.25 0.47111,1.55233 -0.27166,1.75 -6.57583,1.75 h -7.10694 z m 14.56,-21.397645 c 1.8672,-5.17282 3.2346,-9.56544 3.03867,-9.76137 -0.33077,-0.33077 -4.72954,-0.48439 -10.66683,-0.37252 -1.375,0.0259 -4.48073,0.0385 -6.90163,0.028 -2.4209,-0.0105 -4.57117,0.15047 -4.77838,0.35768 -0.31666,0.31666 2.1964,7.87525 5.80446,17.458274 0.76017,2.019011 1.44102,2.267121 5.48832,2.000001 l 4.62049,-0.30495 z M 17.750285,113.53023 c -1.13703,-2.96307 1.18702,-3.5332 13.23548,-3.2469 11.15576,0.2651 11.91682,0.41091 11.91682,2.28318 0,1.87607 -0.76031,2.01741 -12.26951,2.28094 -10.48744,0.24013 -12.35859,0.0488 -12.88279,-1.31722 z m 34.68866,0.0801 c -2.19271,-2.64206 -0.0749,-3.54381 8.32266,-3.54381 8.6092,0 11.5884,1.1535 9.49474,3.67621 -1.60149,1.92967 -16.19604,1.82122 -17.8174,-0.1324 z M 40.747665,96.523379 c -0.32569,-0.84872 -0.41288,-1.7224 -0.19376,-1.94152 0.66415,-0.66416 15.84451,-0.85285 16.49236,-0.205 0.33187,0.33186 0.33693,1.2978 0.0112,2.14652 -0.46148,1.20261 -2.26101,1.54313 -8.15492,1.54313 -5.89391,0 -7.69344,-0.34052 -8.15492,-1.54313 z m 24.84302,-0.20687 c 0.2857,-1.49355 1.71423,-1.79248 9.74831,-2.03984 10.52363,-0.32402 12.29448,0.0246 11.43974,2.25198 -0.479,1.24827 -2.56105,1.53786 -11.05647,1.53786 -9.42879,0 -10.43315,-0.17348 -10.13158,-1.75 z M 719.60259,76.866505 c -1.66087,-1.66088 -1.50009,-4.35706 0.37143,-6.22858 1.19562,-1.19562 3.72243,-1.57142 10.56574,-1.57142 4.94687,0 9.86473,0.46583 10.92857,1.03518 2.39727,1.28298 2.64611,6.47767 0.35247,7.35783 -2.98193,1.14427 -20.96079,0.66441 -22.21821,-0.59301 z m 122,0 c -1.73253,-1.73254 -1.47595,-4.2403 0.62874,-6.14502 2.57449,-2.32988 19.28885,-2.39453 21.59983,-0.0836 1.87152,1.87152 2.0323,4.5677 0.37143,6.22857 -1.64034,1.64034 -20.95966,1.64034 -22.6,1e-5 z m -95.47682,-41.5751 c -7.25853,-7.31458 -8.62381,-11.13735 -4.72318,-13.2249 2.70201,-1.44607 4.28489,-0.46049 11.75,7.3161 6.18486,6.44293 7.37792,9.15598 5.05,11.4839 -2.48906,2.48905 -5.41469,1.13847 -12.07682,-5.5751 z m 79.93181,4.94635 c -0.91025,-1.0058 -1.65499,-2.39475 -1.65499,-3.08655 0,-1.4248 11.57163,-13.78186 14.25,-15.21723 2.67568,-1.43392 5.75,0.67508 5.75,3.94453 0,2.05751 -1.69059,4.41927 -6.7751,9.46482 -3.7263,3.69774 -7.48155,6.72318 -8.34501,6.72318 -0.86345,0 -2.31466,-0.82294 -3.2249,-1.82875 z m -37.08356,-14.74268 c -1.20465,-1.20466 -1.57143,-3.75541 -1.57143,-10.92857 0,-9.8044501 1.0505,-12.5000104 4.87143,-12.5000104 3.42379,0 4.12857,2.1338603 4.12857,12.5000104 0,10.36614 -0.70478,12.5 -4.12857,12.5 -0.95072,0 -2.43572,-0.70715 -3.3,-1.57143 z"
       id="path3" />
  </g>
</svg>
