<?xml version="1.0" encoding="UTF-8" standalone="no"?>
<svg
   id="Layer_1"
   data-name="Layer 1"
   viewBox="0 0 319.26 84.10494"
   version="1.1"
   sodipodi:docname="logo.svg"
   xml:space="preserve"
   width="319.26001"
   height="84.104942"
   inkscape:version="1.4.2 (f4327f4, 2025-05-13)"
   xmlns:inkscape="http://www.inkscape.org/namespaces/inkscape"
   xmlns:sodipodi="http://sodipodi.sourceforge.net/DTD/sodipodi-0.dtd"
   xmlns="http://www.w3.org/2000/svg"
   xmlns:svg="http://www.w3.org/2000/svg"><sodipodi:namedview
     id="namedview10"
     pagecolor="#ffffff"
     bordercolor="#000000"
     borderopacity="0.25"
     inkscape:showpageshadow="2"
     inkscape:pageopacity="0.0"
     inkscape:pagecheckerboard="0"
     inkscape:deskcolor="#d1d1d1"
     inkscape:zoom="1.7004952"
     inkscape:cx="130.55021"
     inkscape:cy="-10.29112"
     inkscape:window-width="1920"
     inkscape:window-height="1009"
     inkscape:window-x="-8"
     inkscape:window-y="-8"
     inkscape:window-maximized="1"
     inkscape:current-layer="g14" /><defs
     id="defs1"><style
       id="style1">
      .cls-1 {
        fill: #fff;
      }

      .cls-2 {
        fill: #f95b0f;
      }
    </style><style
       id="style1-8">
      .cls-1 {
        fill: #fff;
      }

      .cls-2 {
        fill: #f95b0f;
      }
    </style><style
       id="style1-2">
      .cls-1 {
        fill: #fff;
      }

      .cls-2 {
        fill: #f95b0f;
      }
    </style><style
       id="style1-85">
      .cls-1 {
        fill: #fff;
      }

      .cls-2 {
        fill: #f95b0f;
      }
    </style><style
       id="style1-9">
      .cls-1 {
        fill: #fff;
      }

      .cls-2 {
        fill: #f95b0f;
      }
    </style><style
       id="style1-1">
      .cls-1 {
        fill: #fff;
      }

      .cls-2 {
        fill: #f95b0f;
      }
    </style><style
       id="style1-4">
      .cls-1 {
        fill: #fff;
      }

      .cls-2 {
        fill: #f95b0f;
      }
    </style><style
       id="style1-87">
      .cls-1 {
        fill: #fff;
      }

      .cls-2 {
        fill: #f95b0f;
      }
    </style></defs><g
     id="g13"
     transform="translate(-46.371683,-144.09312)"><g
       id="g14"
       transform="translate(-43.095085,26.590963)"><g
         id="g10"
         transform="translate(7.0567679,-8.2328959)"><g
           id="g7"><path
             d="m 230.6,168.48 c 1.21,0.22 2.1,0.8 2.67,1.74 0.57,0.94 0.86,2.28 0.86,4.03 v 4.15 c 0,2.8 -0.63,4.84 -1.89,6.11 -1.26,1.27 -3.28,1.91 -6.08,1.91 h -21.14 c -0.64,0 -0.95,-0.32 -0.95,-0.95 v -31.49 c 0,-0.64 0.32,-0.95 0.95,-0.95 h 20.66 c 2.45,0 4.27,0.56 5.46,1.67 1.19,1.11 1.79,2.78 1.79,5.01 v 3.05 c 0,1.53 -0.18,2.71 -0.55,3.55 -0.37,0.84 -0.96,1.44 -1.79,1.79 v 0.38 z m -19.14,-9.74 v 7.63 h 11.36 c 1.05,0 1.79,-0.21 2.22,-0.64 0.43,-0.43 0.64,-1.17 0.64,-2.22 v -2.05 c 0,-0.99 -0.21,-1.69 -0.62,-2.1 -0.41,-0.41 -1.11,-0.62 -2.1,-0.62 z m 15.27,16.23 c 0,-1.05 -0.21,-1.79 -0.64,-2.22 -0.43,-0.43 -1.17,-0.64 -2.22,-0.64 h -12.41 v 8.59 h 12.41 c 1.05,0 1.79,-0.21 2.22,-0.64 0.43,-0.43 0.64,-1.17 0.64,-2.22 v -2.86 z"
             id="path1" /><path
             d="m 247.34,186.66 c -2.61,0 -4.51,-0.6 -5.7,-1.81 -1.19,-1.21 -1.79,-3.12 -1.79,-5.73 v -16.56 c 0,-0.64 0.32,-0.95 0.95,-0.95 h 5.11 c 0.64,0 0.95,0.32 0.95,0.95 v 15.13 c 0,1.05 0.2,1.77 0.6,2.17 0.4,0.4 1.12,0.6 2.17,0.6 h 4.29 c 1.05,0 1.77,-0.2 2.15,-0.6 0.38,-0.4 0.57,-1.12 0.57,-2.17 v -15.13 c 0,-0.64 0.32,-0.95 0.95,-0.95 h 5.15 c 0.64,0 0.95,0.32 0.95,0.95 v 22.9 c 0,0.64 -0.32,0.95 -0.95,0.95 h -5.15 c -0.64,0 -0.95,-0.32 -0.95,-0.95 v -2.05 h -0.33 c -0.38,1.02 -1.11,1.81 -2.2,2.39 -1.09,0.58 -2.38,0.86 -3.91,0.86 z"
             id="path2" /><path
             d="m 276.83,186.66 c -2.61,0 -4.47,-0.52 -5.58,-1.57 -1.11,-1.05 -1.67,-2.75 -1.67,-5.11 v -0.95 c 0,-0.64 0.32,-0.95 0.95,-0.95 h 5.2 c 0.35,0 0.6,0.07 0.76,0.21 0.16,0.14 0.24,0.39 0.24,0.74 v 0.67 c 0,0.73 0.19,1.28 0.57,1.65 0.38,0.37 0.99,0.55 1.81,0.55 h 5.01 c 0.83,0 1.41,-0.15 1.74,-0.45 0.33,-0.3 0.5,-0.82 0.5,-1.55 v -1.62 c 0,-0.67 -0.17,-1.15 -0.5,-1.43 -0.33,-0.28 -0.92,-0.43 -1.74,-0.43 h -7.63 c -2.29,0 -3.98,-0.51 -5.06,-1.53 -1.08,-1.02 -1.62,-2.59 -1.62,-4.72 v -2.58 c 0,-2.13 0.53,-3.7 1.6,-4.7 1.07,-1 2.76,-1.5 5.08,-1.5 h 9.4 c 2.61,0 4.48,0.52 5.61,1.57 1.13,1.05 1.69,2.75 1.69,5.11 v 0.72 c 0,0.64 -0.32,0.95 -0.95,0.95 h -5.25 c -0.64,0 -0.95,-0.32 -0.95,-0.95 v -0.43 c 0,-0.73 -0.19,-1.28 -0.57,-1.65 -0.38,-0.36 -0.99,-0.55 -1.81,-0.55 h -4.53 c -0.83,0 -1.41,0.16 -1.74,0.48 -0.33,0.32 -0.5,0.84 -0.5,1.57 v 1.43 c 0,0.73 0.17,1.25 0.5,1.55 0.33,0.3 0.92,0.45 1.74,0.45 h 7.73 c 2.29,0 3.96,0.49 5.01,1.48 1.05,0.99 1.57,2.53 1.57,4.63 v 2.72 c 0,2.13 -0.53,3.7 -1.6,4.7 -1.07,1 -2.76,1.5 -5.08,1.5 h -9.92 z"
             id="path3" /><path
             class="cls-2"
             d="m 321.97,152.78 c 2.86,0 4.99,0.69 6.37,2.08 1.38,1.39 2.08,3.51 2.08,6.37 v 16.94 c 0,2.86 -0.69,4.99 -2.08,6.39 -1.38,1.4 -3.51,2.1 -6.37,2.1 h -3.05 l 3.29,6.44 c 0.16,0.38 0.24,0.64 0.24,0.76 0,0.44 -0.32,0.67 -0.95,0.67 h -4.87 c -0.32,0 -0.56,-0.07 -0.72,-0.21 -0.16,-0.14 -0.33,-0.39 -0.52,-0.74 l -3.53,-6.92 h -3.96 c -2.86,0 -4.99,-0.7 -6.39,-2.1 -1.4,-1.4 -2.1,-3.53 -2.1,-6.39 v -16.94 c 0,-2.86 0.7,-4.99 2.1,-6.37 1.4,-1.38 3.53,-2.08 6.39,-2.08 h 14.08 z m 1.05,9.54 c 0,-1.08 -0.25,-1.87 -0.74,-2.36 -0.49,-0.49 -1.28,-0.74 -2.36,-0.74 H 309.9 c -1.08,0 -1.87,0.25 -2.36,0.74 -0.49,0.49 -0.74,1.28 -0.74,2.36 v 14.79 c 0,1.08 0.25,1.87 0.74,2.36 0.49,0.49 1.28,0.74 2.36,0.74 h 10.02 c 1.08,0 1.87,-0.25 2.36,-0.74 0.49,-0.49 0.74,-1.28 0.74,-2.36 z"
             id="path4" /><path
             class="cls-2"
             d="m 344.92,186.66 c -2.61,0 -4.51,-0.6 -5.7,-1.81 -1.19,-1.21 -1.79,-3.12 -1.79,-5.73 v -16.56 c 0,-0.64 0.32,-0.95 0.95,-0.95 h 5.11 c 0.64,0 0.95,0.32 0.95,0.95 v 15.13 c 0,1.05 0.2,1.77 0.6,2.17 0.4,0.4 1.12,0.6 2.17,0.6 h 4.29 c 1.05,0 1.77,-0.2 2.15,-0.6 0.38,-0.4 0.57,-1.12 0.57,-2.17 v -15.13 c 0,-0.64 0.32,-0.95 0.95,-0.95 h 5.15 c 0.64,0 0.95,0.32 0.95,0.95 v 22.9 c 0,0.64 -0.32,0.95 -0.95,0.95 h -5.15 c -0.64,0 -0.95,-0.32 -0.95,-0.95 v -2.05 h -0.33 c -0.38,1.02 -1.11,1.81 -2.2,2.39 -1.09,0.58 -2.38,0.86 -3.91,0.86 z"
             id="path5" /><path
             class="cls-2"
             d="m 368.97,158.5 c -0.64,0 -0.95,-0.32 -0.95,-0.95 v -4.06 c 0,-0.64 0.32,-0.95 0.95,-0.95 h 5.63 c 0.64,0 0.95,0.32 0.95,0.95 v 4.06 c 0,0.64 -0.32,0.95 -0.95,0.95 z m 0.24,27.92 c -0.64,0 -0.95,-0.32 -0.95,-0.95 v -22.9 c 0,-0.64 0.32,-0.95 0.95,-0.95 h 5.11 c 0.64,0 0.95,0.32 0.95,0.95 v 22.9 c 0,0.64 -0.32,0.95 -0.95,0.95 z"
             id="path6" /><path
             class="cls-2"
             d="m 381.14,186.42 c -0.64,0 -0.95,-0.32 -0.95,-0.95 v -3.86 c 0,-0.6 0.22,-1.13 0.67,-1.57 l 11.88,-12.36 v -0.33 h -11.12 c -0.64,0 -0.95,-0.32 -0.95,-0.95 v -3.82 c 0,-0.64 0.32,-0.95 0.95,-0.95 h 19.09 c 0.64,0 0.95,0.32 0.95,0.95 v 3.82 c 0,0.35 -0.05,0.64 -0.14,0.86 -0.1,0.22 -0.27,0.46 -0.52,0.72 l -11.88,12.36 v 0.38 h 11.6 c 0.64,0 0.95,0.32 0.95,0.95 v 3.82 c 0,0.64 -0.32,0.95 -0.95,0.95 h -19.56 z"
             id="path7" /></g><g
           id="g9"><path
             class="cls-2"
             d="m 181.44,134.81 -49.19,-8.99 c -2.54,-0.46 -4.98,0.99 -5.84,3.34 h 18.75 c 8.68,0 15.74,7.06 15.74,15.74 v 39.79 c 0,8.68 -7.06,15.74 -15.74,15.74 h -11.75 l 34.88,6.37 c 2.84,0.52 5.56,-1.36 6.08,-4.2 l 11.28,-61.71 c 0.52,-2.84 -1.36,-5.56 -4.2,-6.08 z m -7.27,52.64 -9.38,-1.54 0.61,-3.71 9.38,1.54 z m 2.48,-12.84 -12.23,-2.01 0.61,-3.71 12.23,2.01 z m 3.41,-12.57 -15.91,-2.62 0.61,-3.71 15.91,2.62 z m 2.82,-22.75 c -0.16,0.49 -0.84,1.52 -1.13,2.02 -2.18,3.65 -4.63,7.16 -6.93,10.73 -0.78,0.86 -1.64,0.97 -2.5,0.14 -0.06,-0.06 -0.13,-0.12 -0.19,-0.18 -1.3,-1.62 -2.4,-3.54 -3.69,-5.18 -0.04,-0.08 -0.08,-0.17 -0.08,-0.26 0,-0.8 1.49,-2.14 2.28,-1.69 l 2.93,3.56 c 0.34,-0.37 0.67,-0.75 1,-1.14 1.84,-2.17 3.59,-4.47 5.53,-6.55 0.41,-0.44 1.52,-1.62 2.03,-1.8 0.24,-0.08 0.51,-0.1 0.74,0 0.1,0.08 0.04,0.25 0.01,0.35 z"
             id="path8" /><path
             d="M 145.15,133.54 H 93.77 c -6.27,0 -11.36,5.08 -11.36,11.36 v 39.79 c 0,6.27 5.08,11.36 11.36,11.36 h 2.9 v 13.79 l 21.18,-13.79 h 27.31 c 6.27,0 11.36,-5.08 11.36,-11.36 V 144.9 c 0,-6.27 -5.08,-11.36 -11.36,-11.36 z m -22.84,50.11 c -0.81,0.85 -1.86,1.28 -3.15,1.28 -1.29,0 -2.29,-0.44 -3.12,-1.3 -0.83,-0.87 -1.25,-1.95 -1.25,-3.23 0,-1.28 0.42,-2.4 1.25,-3.23 0.83,-0.83 1.87,-1.25 3.12,-1.25 1.25,0 2.33,0.42 3.15,1.25 0.81,0.83 1.22,1.91 1.22,3.23 0,1.32 -0.41,2.41 -1.22,3.26 z m 9.39,-25.38 c -0.49,1.1 -1.09,2.02 -1.79,2.78 -0.7,0.76 -1.64,1.64 -2.81,2.67 -1.55,1.36 -2.69,2.55 -3.43,3.57 -0.74,1.02 -1.11,2.27 -1.11,3.74 h -6.52 c 0,-1.51 0.22,-2.83 0.65,-3.94 0.43,-1.11 0.96,-2.04 1.59,-2.78 0.62,-0.74 1.45,-1.6 2.47,-2.58 1.21,-1.1 2.1,-2.05 2.67,-2.86 0.57,-0.81 0.85,-1.82 0.85,-3.03 0,-1.32 -0.4,-2.32 -1.19,-2.98 -0.79,-0.66 -1.91,-0.99 -3.35,-0.99 -3.25,0 -4.93,1.78 -5.05,5.33 l -6.75,-0.06 c 0.04,-3.93 1.17,-6.99 3.4,-9.19 2.23,-2.19 5.27,-3.29 9.13,-3.29 3.86,0 6.63,0.85 8.76,2.55 2.14,1.7 3.2,4.12 3.2,7.26 0,1.44 -0.25,2.7 -0.74,3.8 z"
             id="path9" /></g></g></g></g></svg>
