<svg xmlns="http://www.w3.org/2000/svg" viewBox="0 0 800 800" fill="none">
  <style>
    .country { fill: #d4d4d8; stroke: #71717a; stroke-width: 1; cursor: pointer; transition: fill 0.2s; }
    .country:hover { fill: #a1a1aa; }
    .country.highlighted { fill: #f97316; stroke: #ea580c; stroke-width: 2; }
    :root .dark .country { fill: #3f3f46; stroke: #52525b; }
    :root .dark .country:hover { fill: #52525b; }
    :root .dark .country.highlighted { fill: #f97316; stroke: #ea580c; }
  </style>
  <g id="americas">
    <path id="canada" class="country" d="M100,60 L200,50 L280,55 L350,60 L400,70 L420,85 L415,105 L400,120 L380,130 L350,135 L320,130 L280,125 L240,120 L200,115 L160,110 L130,100 L115,85 Z"/>
    <path id="united-states" class="country" d="M115,130 L200,125 L280,130 L350,135 L380,140 L395,155 L395,175 L385,190 L370,200 L350,205 L320,205 L290,200 L260,195 L230,190 L200,185 L170,180 L145,170 L130,155 L120,140 Z"/>
    <path id="mexico" class="country" d="M120,210 L170,205 L210,210 L230,220 L235,240 L230,260 L220,275 L205,280 L190,275 L175,265 L165,250 L155,235 L140,225 L130,215 Z"/>
    <path id="guatemala" class="country" d="M195,278 L215,275 L225,282 L225,295 L218,302 L205,305 L195,298 L190,288 Z"/>
    <path id="honduras" class="country" d="M225,280 L245,277 L255,285 L255,298 L248,305 L235,308 L225,300 L222,290 Z"/>
    <path id="nicaragua" class="country" d="M245,300 L265,297 L275,305 L275,320 L268,330 L255,332 L245,325 L240,312 Z"/>
    <path id="costa-rica" class="country" d="M260,328 L275,325 L282,332 L282,345 L275,352 L265,350 L258,342 Z"/>
    <path id="panama" class="country" d="M278,348 L295,345 L305,352 L308,365 L302,375 L290,378 L280,372 L275,360 Z"/>
    <path id="colombia" class="country" d="M230,340 L260,335 L280,345 L285,370 L280,395 L265,405 L245,408 L230,400 L220,385 L218,365 L220,350 Z"/>
    <path id="venezuela" class="country" d="M280,330 L310,325 L330,335 L335,355 L330,375 L315,385 L295,388 L280,380 L275,365 L275,345 Z"/>
    <path id="guyana" class="country" d="M330,340 L348,335 L355,345 L355,360 L348,370 L335,372 L328,362 L328,350 Z"/>
    <path id="suriname" class="country" d="M355,342 L370,338 L378,348 L378,365 L370,372 L358,370 L352,358 L352,348 Z"/>
    <path id="ecuador" class="country" d="M230,410 L250,405 L260,415 L260,435 L252,445 L240,448 L230,440 L225,425 Z"/>
    <path id="peru" class="country" d="M245,440 L275,435 L295,445 L300,475 L292,500 L275,510 L258,508 L245,498 L238,480 L238,460 Z"/>
    <path id="brazil" class="country" d="M295,380 L330,375 L360,385 L380,400 L385,430 L380,460 L370,485 L355,500 L335,510 L315,512 L300,505 L290,490 L285,465 L285,440 L288,415 L290,395 Z"/>
    <path id="bolivia" class="country" d="M280,500 L305,495 L320,505 L322,530 L315,545 L300,548 L285,540 L280,525 Z"/>
    <path id="chile" class="country" d="M260,530 L275,525 L280,540 L280,580 L278,610 L275,640 L270,660 L262,665 L255,655 L252,630 L252,600 L255,570 L258,545 Z"/>
    <path id="argentina" class="country" d="M280,540 L310,535 L330,545 L335,575 L330,610 L320,640 L305,655 L290,660 L278,650 L272,630 L270,600 L272,570 L275,550 Z"/>
    <path id="paraguay" class="country" d="M310,510 L330,505 L340,515 L340,535 L335,545 L322,548 L312,540 L308,525 Z"/>
    <path id="uruguay" class="country" d="M340,540 L355,535 L362,545 L362,565 L355,575 L342,578 L335,568 L335,550 Z"/>
  </g>
</svg>
