<svg xmlns="http://www.w3.org/2000/svg" viewBox="0 0 800 600" fill="none">
  <style>
    .country { fill: #d4d4d8; stroke: #71717a; stroke-width: 1; cursor: pointer; transition: fill 0.2s; }
    .country:hover { fill: #a1a1aa; }
    .country.highlighted { fill: #f97316; stroke: #ea580c; stroke-width: 2; }
    :root .dark .country { fill: #3f3f46; stroke: #52525b; }
    :root .dark .country:hover { fill: #52525b; }
    :root .dark .country.highlighted { fill: #f97316; stroke: #ea580c; }
  </style>
  <g id="oceania">
    <path id="australia" class="country" d="M300,200 L380,190 L440,195 L490,210 L510,235 L515,265 L510,295 L495,320 L475,335 L450,345 L420,348 L390,345 L360,335 L335,320 L315,300 L305,275 L300,250 L298,225 Z"/>
    <path id="new-zealand" class="country" d="M560,310 L575,305 L585,315 L588,340 L582,360 L570,368 L558,362 L553,345 L555,325 Z"/>
    <path id="papua-new-guinea" class="country" d="M560,220 L590,215 L610,225 L615,245 L608,260 L595,268 L578,265 L565,255 L558,240 Z"/>
    <path id="indonesia-east" class="country" d="M490,280 L530,275 L560,282 L570,300 L565,318 L550,325 L530,322 L510,315 L498,300 L492,290 Z"/>
    <path id="fiji" class="country" d="M640,310 L652,306 L658,314 L658,328 L652,335 L642,333 L638,322 Z"/>
    <path id="solomon-islands" class="country" d="M620,260 L640,256 L650,264 L650,278 L642,285 L630,283 L622,274 Z"/>
    <path id="new-caledonia" class="country" d="M600,320 L612,316 L618,324 L618,340 L612,348 L602,346 L598,334 Z"/>
    <path id="tonga" class="country" d="M670,340 L678,336 L682,344 L682,356 L676,362 L668,360 L666,350 Z"/>
    <path id="samoa" class="country" d="M660,290 L668,286 L674,294 L674,306 L668,312 L660,310 L658,300 Z"/>
  </g>
</svg>
